<?xml version="1.0" encoding="UTF-8"?>
<svg width="100px" height="100px" viewBox="0 0 100 100" version="1.1" xmlns="http://www.w3.org/2000/svg" xmlns:xlink="http://www.w3.org/1999/xlink">
    <!-- Generator: Sketch 46.2 (44496) - http://www.bohemiancoding.com/sketch -->
    <title>launcher</title>
    <desc>Created with Sketch.</desc>
    <defs></defs>
    <g id="Symbols" stroke="none" stroke-width="1" fill="none" fill-rule="evenodd">
        <g id="launcher" fill-rule="nonzero" fill="#068B9E">
            <g id="SvgjsG1416" transform="translate(0.000000, 14.000000)">
                <path d="M49.3163664,0.0498609599 C46.5527832,0.0498609599 44.3179149,2.06402646 44.3179149,4.54820147 C44.3179149,7.03237649 46.5527832,9.04541486 49.3163664,9.04541486 C52.0754211,9.04541486 54.3159501,7.03237649 54.3159501,4.54820147 C54.3159501,2.06402646 52.0742889,0.0498609599 49.3163664,0.0498609599 Z M49.3378773,7.87095463 C47.3079286,7.87095463 45.6640438,6.39104455 45.6640438,4.56623541 C45.6640438,2.74029915 47.3079286,1.2615162 49.3378773,1.2615162 C51.3644296,1.2615162 53.0083144,2.74029915 53.0083144,4.56623541 C53.0083144,6.39104455 51.3644296,7.87095463 49.3378773,7.87095463 Z M5.02770854,22.3837666 C2.26525743,22.3837666 0.0292570353,24.3968049 0.0292570353,26.88098 C0.0292570353,29.365155 2.26525743,31.3793205 5.02770854,31.3793205 C7.7867632,31.3793205 10.0272922,29.365155 10.0272922,26.88098 C10.0272922,24.3968049 7.7867632,22.3837666 5.02770854,22.3837666 Z M5.04921943,30.2037331 C3.02040288,30.2037331 1.37538588,28.723823 1.37538588,26.8990139 C1.37538588,25.0742047 3.02040288,23.5942947 5.04921943,23.5942947 C7.07690384,23.5942947 8.72192084,25.0742047 8.72192084,26.8990139 C8.72192084,28.7249502 7.07690384,30.2037331 5.04921943,30.2037331 Z M94.9194529,22.3837666 C92.1570018,22.3837666 89.9198692,24.3968049 89.9198692,26.88098 C89.9198692,29.365155 92.1570018,31.3793205 94.9194529,31.3793205 C97.6773754,31.3793205 99.9190366,29.365155 99.9190366,26.88098 C99.9190366,24.3968049 97.6773754,22.3837666 94.9194529,22.3837666 Z M94.9409638,30.2037331 C92.9132794,30.2037331 91.2693945,28.723823 91.2693945,26.8990139 C91.2693945,25.0742047 92.9132794,23.5942947 94.9409638,23.5942947 C96.9709125,23.5942947 98.6159295,25.0742047 98.6159295,26.8990139 C98.6159295,28.7249502 96.9709125,30.2037331 94.9409638,30.2037331 Z M89.5779593,22.7624793 C80.2818584,17.9834856 67.9606472,28.2166185 58.7562506,38.3855055 C57.18822,31.5574056 55.3552657,23.5458285 51.3089541,14.4972999 C47.0441372,6.36399365 43.3601142,31.4920326 43.7076849,42.5795233 C38.4069488,29.2411716 26.0585659,25.8552997 13.0399489,26.174275 C33.987027,47.2582032 35.7950739,54.9733475 35.7950739,54.9733475 L45.7931091,54.9733475 L61.3081214,54.9733475 L67.8598856,54.9733475 C67.8598856,54.9733475 71.1193515,37.1050959 89.5779593,22.7624793 Z M37.5804778,52.8228004 C37.5804778,52.8228004 36.5332371,47.5737972 17.3806201,28.1884405 C36.6860776,28.6077296 38.6141327,44.5812905 44.9292771,44.5328243 C47.8785333,40.808816 47.4132188,9.04654199 50.422479,16.8236779 C52.5192247,22.741064 54.3159501,32.7296116 56.8100812,40.6070613 L46.6909057,52.8239275 L37.5804778,52.8239275 L37.5804778,52.8228004 Z M65.6850214,52.7754613 L50.2628456,52.7991308 C50.2628456,52.7991308 72.2073497,19.7136166 86.5947385,23.5954218 C71.6107055,36.2451025 65.6850214,52.7754613 65.6850214,52.7754613 Z M4.17746232,27.4648287 C4.56579049,27.8942619 5.09337337,28.3687799 5.82474362,28.8635861 C5.90512642,28.7914503 6.01381302,28.7463655 6.13608545,28.7463655 C6.378366,28.7463655 6.57649261,28.9233235 6.57649261,29.1431121 C6.57649261,29.3606465 6.37949815,29.5387316 6.13608545,29.5387316 C5.8938049,29.5387316 5.69681043,29.3606465 5.69681043,29.1431121 C5.69681043,29.0642136 5.72737854,28.9943321 5.77266462,28.9323404 C5.52811977,28.8128656 4.7050452,28.369907 4.02915039,27.6102273 C3.8140415,27.8187448 3.59213968,28.0610758 3.36570927,28.3360934 C3.42797763,28.4048478 3.46986726,28.4882547 3.46986726,28.58406 C3.46986726,28.8027215 3.27287279,28.9796795 3.02946009,28.9796795 C2.78717954,28.9796795 2.59018508,28.8027215 2.59018508,28.58406 C2.59018508,28.3653985 2.78717954,28.1873134 3.02946009,28.1873134 C3.1166358,28.1873134 3.19362215,28.2166185 3.26268342,28.2560678 C3.40759889,28.0374063 3.62610425,27.7533717 3.91253873,27.4614473 C3.61365057,27.095133 3.37363433,26.6634456 3.24117253,26.1663851 C3.20494367,26.1731479 3.17211126,26.1855462 3.13361809,26.1855462 C2.83246563,26.1855462 2.59018508,25.9668847 2.59018508,25.6963756 C2.59018508,25.4258665 2.83246563,25.207205 3.13361809,25.207205 C3.43363839,25.207205 3.67705109,25.4258665 3.67705109,25.6963756 C3.67705109,25.9172914 3.50949258,26.0976308 3.28532647,26.1573682 C3.40873105,26.4425298 3.63969007,26.8460392 4.05405774,27.3295742 C4.47748262,26.9294462 5.03223715,26.5574962 5.72398208,26.36025 C5.71379271,26.3174194 5.69681043,26.276843 5.69681043,26.2317582 C5.69681043,25.9353253 5.96286618,25.6963756 6.29232244,25.6963756 C6.6217787,25.6963756 6.88783444,25.9353253 6.88783444,26.2317582 C6.88783444,26.528191 6.6217787,26.7671407 6.29232244,26.7671407 C6.03419176,26.7671407 5.82134716,26.6194878 5.73756791,26.4143518 C5.35376835,26.5800386 4.80354243,26.8933783 4.17746232,27.4648287 Z M49.8054561,3.66566561 C49.2405122,3.88770848 48.5906569,4.22020922 47.8672117,4.72177813 C47.9238194,4.8108207 47.9408016,4.91789721 47.9102335,5.02271948 C47.8445687,5.23461825 47.6022882,5.35860158 47.3668005,5.29999128 C47.1347093,5.24138098 46.9965868,5.0238466 47.0611195,4.81194782 C47.1256521,4.60230329 47.3679327,4.47831996 47.601156,4.53693026 C47.6860674,4.55721844 47.7517322,4.60455753 47.8060755,4.65865935 C47.9996735,4.47831996 48.6925506,3.88319999 49.6877123,3.50110592 C49.5224181,3.25877488 49.320895,3.00066413 49.0876717,2.73128218 C48.9970995,2.76622293 48.8974702,2.78087551 48.7944443,2.75495172 C48.561221,2.69634142 48.4242306,2.47880704 48.4876311,2.26803538 C48.5521638,2.05726373 48.7944443,1.9332804 49.0287998,1.9918907 C49.2642874,2.04937388 49.4001457,2.26916251 49.335613,2.47880704 C49.3118378,2.55432416 49.2597588,2.61406158 49.1997548,2.66365491 C49.3944849,2.84850278 49.6412941,3.11224913 49.8779139,3.43798714 C50.3488891,3.27680881 50.8753399,3.18438488 51.4436802,3.20241882 C51.4448124,3.16973231 51.4414159,3.13591867 51.4527374,3.10323216 C51.5331202,2.84399429 51.8320084,2.69070582 52.119575,2.76284157 C52.4116703,2.83497732 52.5803609,3.1054864 52.5011103,3.36472426 C52.4195953,3.62508925 52.119575,3.77725061 51.8320084,3.70511485 C51.5931243,3.64537743 51.4448124,3.45376684 51.4414159,3.2441223 C51.1017703,3.27455457 50.6092841,3.36697851 49.9809397,3.59691122 C50.2968101,4.0703021 50.5481479,4.6507695 50.5753196,5.30449976 C50.6240021,5.30562689 50.6704203,5.30224552 50.7191029,5.31351673 C51.0372376,5.39241521 51.2217784,5.68772096 51.1346027,5.97288261 C51.047427,6.25804426 50.7191029,6.42485819 50.4021003,6.34708683 C50.0839656,6.26706123 49.8982926,5.97288261 49.9866005,5.68772096 C50.0545296,5.46567809 50.2696385,5.31915234 50.5130512,5.3011184 C50.4383292,4.92240569 50.2492598,4.36109936 49.8054561,3.66566561 Z M95.8772536,27.6485495 C96.1376486,27.1481077 96.3844577,26.5135385 96.5633377,25.7065197 C96.4557833,25.6727061 96.364079,25.6039517 96.3108678,25.504765 C96.2044455,25.3075188 96.2984142,25.0708234 96.5180517,24.9750181 C96.7342927,24.8803399 96.9980842,24.9626198 97.1056386,25.1609931 C97.2097966,25.3582393 97.1180923,25.5949347 96.8973226,25.6896129 C96.8203363,25.7234265 96.7342927,25.727935 96.6550421,25.718918 C96.6414562,25.9691389 96.5542805,26.8268781 96.0855696,27.7037784 C96.3878542,27.7894396 96.7263676,27.8638296 97.0999778,27.9280755 C97.1407353,27.849177 97.2075323,27.7792955 97.3037652,27.737592 C97.5211384,27.644041 97.7849299,27.7251937 97.8913522,27.923567 C97.9966423,28.1196861 97.9038058,28.3575087 97.6830362,28.4521868 C97.465663,28.546865 97.2030037,28.4645852 97.0965814,28.2662118 C97.0603525,28.1952032 97.0546918,28.1208132 97.0648811,28.0486775 C96.7807109,28.0250079 96.4037043,27.9720332 95.9870723,27.8660838 C95.7493204,28.2662118 95.4221284,28.649433 94.979457,28.9706626 C95.0021,28.9965864 95.031536,29.0180017 95.0462539,29.049561 C95.1775836,29.2918921 95.0643684,29.5860707 94.7915197,29.7032913 C94.5231997,29.8205119 94.198272,29.7179439 94.0658102,29.4733586 C93.9367449,29.2299004 94.0499601,28.9379761 94.3205444,28.8207555 C94.5424463,28.7249502 94.7949162,28.7813062 94.9534175,28.9379761 C95.1855086,28.7136789 95.4877933,28.3518731 95.7934743,27.8063464 C95.2092838,27.6372782 94.5967896,27.3487352 94.0986426,26.8730901 C94.0624138,26.9012681 94.027317,26.9328275 93.9842953,26.9519886 C93.6854071,27.0793533 93.3321757,26.9666412 93.1883923,26.7006406 C93.0457412,26.43464 93.1691458,26.1134105 93.4657696,25.9860458 C93.7635256,25.8575539 94.1178892,25.9702661 94.2605404,26.2373938 C94.3726234,26.4447841 94.3160158,26.6837338 94.146193,26.8392765 C94.48131,27.0782262 95.0349324,27.3893116 95.8772536,27.6485495 Z M67.2960739,66.402356 C67.2960739,66.402356 68.6048417,65.5919559 68.8878797,66.402356 C69.1709178,67.2127561 67.7557276,67.3536462 67.7557276,67.3536462 C67.7557276,67.3536462 63.4750606,69.361049 61.1394308,67.3536462 C58.803801,65.3462435 58.9985312,61.7180405 61.2809498,60.3970545 C63.0459749,59.3758827 67.1896516,58.019956 69.5603781,59.992418 C71.5416442,61.5771503 70.5929008,63.5011461 69.5954748,64.6767335 C68.5335161,65.6449306 64.6955205,67.8642321 62.6610432,64.7826829 C61.7055068,63.0390265 63.5814829,61.2604293 64.6072127,61.1894207 C65.6329425,61.118412 67.5609975,60.8197249 67.2960739,63.0029586 C67.1896516,63.8832402 65.6035065,64.1593849 65.6035065,64.1593849 C65.6035065,64.1593849 64.5370192,63.9531217 65.7393647,63.1258148 C66.5884788,62.6321357 66.0937284,61.927685 65.42123,62.0685752 C64.7487317,62.2094653 62.6259465,63.2306371 64.0060399,64.7105471 C66.8013234,66.5601529 68.8844833,63.5281971 68.9241086,63.4425358 C69.7732227,61.6459047 69.2071466,60.8715725 67.9685722,60.2370033 C66.7299978,59.6024341 63.7230019,60.4128342 62.7323688,61.0124626 C61.7417357,61.6120911 60.1408726,61.8048288 60.5122185,64.6226317 C61.2198136,66.207364 61.1756596,66.9298487 63.6165796,67.0707388 C66.0574995,67.211629 67.2960739,66.402356 67.2960739,66.402356 Z M41.2803508,66.8937808 C41.2803508,66.8937808 42.5891187,66.0833807 42.8721567,66.8937808 C43.1551947,67.7041809 41.7400046,67.8450711 41.7400046,67.8450711 C41.7400046,67.8450711 37.4593375,69.8524738 35.1237077,67.8450711 C32.788078,65.8376683 32.9828081,62.2094653 35.2652268,60.8884793 C37.0302519,59.8673076 41.1739285,58.5113808 43.544655,60.4838428 C45.5259212,62.0685752 44.5771778,63.992571 43.5797518,65.1681583 C42.5177931,66.1363554 38.6797975,68.3556569 36.6453202,65.2741077 C35.6897838,63.5304513 37.5657598,61.7518541 38.5914896,61.6808455 C39.6172194,61.6098369 41.5452744,61.3111497 41.2803508,63.4943834 C41.1739285,64.374665 39.5877835,64.6508097 39.5877835,64.6508097 C39.5877835,64.6508097 38.5212962,64.4445465 39.7236417,63.6172396 C40.5727558,63.1235606 40.0780053,62.4191098 39.405507,62.56 C38.7330086,62.7008901 36.6102234,63.7220619 37.9903169,65.201972 C40.7856004,67.0515778 42.8687602,64.0196219 42.9083856,63.9339607 C43.7574996,62.1373296 43.1914236,61.3629973 41.9528492,60.7284281 C40.7142748,60.0938589 37.7072788,60.904259 36.7166457,61.5038875 C35.7260127,62.1035159 34.1251496,62.2962536 34.4964955,65.1140565 C35.2040905,66.6987888 35.1599366,67.4212735 37.6008565,67.5621637 C40.0417765,67.7030538 41.2803508,66.8937808 41.2803508,66.8937808 Z M43.7597639,71.0517307 C43.7597639,71.0517307 43.9012829,68.3567841 45.5995111,67.5993586 C47.2977392,66.8419332 47.8457009,68.7974884 47.9872199,69.0612348 C48.1287389,69.3249811 48.5714103,70.34728 49.4205244,69.1491502 C50.2696385,67.9510204 50.8176001,66.5781869 51.6316175,67.7932235 C52.4456348,69.0082601 52.7105584,69.3779558 53.7362882,68.4627334 C54.762018,67.5475111 54.6737102,67.3705531 55.4696131,67.9870883 C56.265516,68.6036236 56.3368416,68.3567841 56.9198999,67.5993586 C57.5029582,66.8419332 57.9818586,66.8599672 58.5830313,67.4054938 C59.1842041,67.9510204 59.4672421,68.1809532 59.4762993,68.4266656 C59.4853566,68.672378 58.8479549,68.7264798 58.6011458,68.4086316 C58.3543366,68.0907835 57.6807061,67.6692402 57.0976478,68.6374372 C56.5145895,69.6056343 55.9654957,69.5177188 55.4175341,68.9372515 C54.8695725,68.3567841 54.5152089,68.4435724 53.8959217,69.166057 C53.2766345,69.8885417 52.550925,69.8288043 51.5433096,69.0308025 C50.5356942,68.2328007 50.1462339,69.0251669 49.7567736,69.8885417 C49.3673133,70.7519165 48.1468533,70.7868573 47.2445281,69.4128966 C46.3422029,68.0389359 45.9889714,67.8033676 45.3866665,69.0308025 C44.7843616,70.2582374 44.7039788,70.9277474 44.7039788,70.9277474 C44.7039788,70.9277474 44.660957,71.3323839 44.2714967,71.3853586 C43.8820364,71.4383333 43.7597639,71.0517307 43.7597639,71.0517307 Z" id="Shape"></path>
            </g>
        </g>
    </g>
</svg>